<svg width="132" height="148" viewBox="0 0 132 148" fill="none" xmlns="http://www.w3.org/2000/svg">
<path fill-rule="evenodd" clip-rule="evenodd" d="M72.2067 144.076C71.4847 144.522 69.2624 145.374 67.279 145.992C65.2956 146.61 62.4607 147.279 60.9552 147.43C59.4034 147.606 56.7705 147.597 55.0891 147.378C53.3614 147.185 50.7306 146.813 49.2541 146.535C47.7313 146.281 45.4836 145.856 44.2512 145.599C43.0383 145.383 41.6103 144.716 40.9999 144.171C40.1599 143.39 40.0108 142.955 40.3736 141.879C40.6219 141.175 41.5923 140.025 42.5532 139.346C43.819 138.448 45.2339 137.985 48.0348 137.489C50.9284 136.943 52.1848 136.515 53.5237 135.526C54.4846 134.846 56.2283 133.481 57.3427 132.511C58.5231 131.557 60.0836 129.93 60.8685 128.881C61.8178 127.606 62.1886 126.628 61.9816 125.949C61.7737 125.391 61.1242 124.764 60.4653 124.608C59.8063 124.451 58.4594 124.566 57.4616 124.801C56.0539 125.157 54.9612 125.805 52.9054 127.495C51.4129 128.775 48.5179 130.666 46.4787 131.779C44.0688 133.094 41.5684 134.098 39.3678 134.628C37.4844 135.088 34.9543 135.54 33.7196 135.645C32.485 135.751 29.9376 135.799 28.0635 135.789C26.1895 135.779 24.6131 135.658 24.5617 135.428C24.4835 135.264 23.8977 135.016 23.2387 134.859C22.6457 134.718 21.3422 134.19 20.4146 133.715C19.3357 133.167 18.3516 132.207 17.8238 131.1C17.3545 130.117 16.8563 129.562 16.6369 129.837C16.4175 130.112 16.193 130.131 16.0757 129.885C15.9584 129.639 16.1583 129.323 16.4827 129.146C16.7608 128.995 17.1163 128.026 17.2011 127.101C17.3126 126.111 17.8093 124.703 18.3018 124.021C18.8405 123.313 20.233 122.192 21.4112 121.6C23.0064 120.781 24.8631 120.387 28.3816 120.171C31.0485 120.006 35.1963 119.394 37.6678 118.82C40.3441 118.185 43.1349 117.178 44.6643 116.343C46.0546 115.584 48.652 113.804 50.4153 112.48C52.1785 111.156 54.0635 109.352 54.5631 108.563C55.0896 107.707 55.3278 106.492 55.1345 105.72C54.897 104.61 54.5161 104.301 53.3814 104.249C52.6297 104.143 51.222 104.498 50.3415 104.979C49.461 105.46 48.0757 106.474 47.2929 107.16C46.5297 107.886 43.9858 109.534 41.715 110.773C39.4246 111.972 36.1363 113.406 34.4505 113.913C32.7452 114.379 30.0956 114.947 28.5901 115.098C27.1042 115.289 24.3272 115.101 22.548 114.677C20.3467 114.226 18.0107 113.125 15.6645 111.514C13.6797 110.169 11.5704 108.687 10.9136 108.167C10.2568 107.648 9.54141 107.005 9.24597 106.753C8.95053 106.501 8.41541 105.502 7.98529 104.6C7.60152 103.673 7.28074 102.144 7.34593 101.179C7.38431 100.28 7.70801 99.1214 8.0737 98.6635C8.41259 98.2718 9.37352 97.5922 10.1346 97.2284C10.9152 96.9055 12.9768 96.4515 14.6408 96.2662C16.3048 96.0809 19.2086 96.0452 21.029 96.1877C22.8299 96.2893 24.4795 96.3185 24.7112 96.192C24.9161 96.1317 26.7387 95.9115 28.8517 95.6877C30.9184 95.4892 34.0096 94.9895 35.715 94.5234C37.4203 94.0572 39.5304 93.2152 40.3718 92.6525C41.2133 92.0898 42.4573 91.5139 43.1575 91.3899C43.9237 91.2815 44.3675 90.9875 44.3893 90.6657C44.411 90.3439 44.9744 89.9331 45.6818 89.7018C46.7796 89.3091 46.8796 89.1512 46.3517 88.0447C45.9411 87.1841 45.2112 86.7561 43.8861 86.5498C42.8708 86.3809 40.7578 86.6047 39.3038 86.9853C37.8034 87.3912 36.2299 87.8887 35.8591 88.0911C35.4884 88.2936 32.9902 88.9343 30.3674 89.4364C27.7641 89.9796 24.6533 90.4382 23.5382 90.4272C22.4035 90.3752 20.3926 90.0783 19.0551 89.7238C17.7445 89.3029 15.8017 88.659 14.8277 88.2093C13.8074 87.7849 12.3672 86.9699 11.6445 86.4347C10.9414 85.9404 10.231 85.5534 10.0456 85.6546C9.81391 85.7812 9.70892 85.6835 9.75019 85.4027C9.76467 85.1882 9.25417 84.4854 8.60465 83.8586C7.95512 83.2318 7.04925 82.435 6.64882 82.0854C6.20203 81.7611 5.2643 80.7751 4.49746 79.9024C3.77697 79.0044 2.80232 77.5736 2.37219 76.672C1.76612 75.4016 1.70458 74.6604 2.33314 73.2841C2.75459 72.3309 3.73217 71.074 4.41502 70.5462C5.19056 69.9679 6.44692 69.5402 7.68154 69.4344C8.73805 69.3225 9.73589 69.0876 9.92851 68.8791C10.0748 68.696 10.2529 68.702 10.3702 68.9479C10.4875 69.1938 10.9951 69.2782 11.5368 69.1892C12.0321 69.1254 13.7403 69.2775 15.2827 69.5718C16.8446 69.9072 18.5847 70.2485 19.1582 70.3487C19.7512 70.4898 21.723 70.7046 23.563 70.8881C25.3834 71.0307 27.9237 71.0901 29.1778 71.0253C30.432 70.9604 31.952 70.5955 32.6008 70.2413C33.2691 69.928 33.9397 69.252 34.1272 68.788C34.2685 68.3493 34.2163 67.1381 33.8789 66.1859C33.5878 65.2084 33.1114 64.3321 32.8087 64.1875C32.506 64.0428 30.9759 63.8967 29.4191 63.8169C27.8354 63.8034 26.4299 63.7959 26.2445 63.8971C26.0323 64.0646 25.1221 63.9933 24.2387 63.8558C23.3357 63.6773 21.2712 63.513 19.6485 63.4175C18.0257 63.322 15.5731 62.9564 14.2357 62.6019C12.8519 62.2726 11.6534 61.8421 11.5361 61.5963C11.4188 61.3504 11.0039 61.2153 10.6281 61.1622C10.2255 61.1754 8.84387 60.4834 7.60853 59.6082C6.32683 58.7583 4.48323 56.9755 3.45499 55.6773C2.38765 54.2971 1.23922 52.1347 0.681658 50.4763C-0.0127557 48.5309 -0.162623 47.1148 0.16831 45.8493C0.41163 44.89 1.23787 43.5608 1.92797 42.9258C2.68395 42.3064 3.928 41.7305 4.78681 41.5716C5.57973 41.397 10.5559 42.3993 15.8666 43.7356C21.1773 45.0719 26.1535 46.0743 26.9927 45.8744C27.8052 45.7407 29.2933 45.1866 30.3128 44.6299C32.0276 43.6938 32.1543 43.4696 32.1652 41.6557C32.1761 39.8419 32.0979 39.678 30.6257 38.6738C29.7249 38.1325 28.1311 37.6079 27.0428 37.5306C25.974 37.4943 25.0051 37.3001 24.9537 37.0699C24.8755 36.906 24.1289 37.0553 23.3287 37.3372C22.5286 37.619 21.782 37.7684 21.6843 37.5635C21.6061 37.3995 20.6958 37.3283 19.732 37.3896C18.7023 37.4352 16.6523 37.0564 15.2171 36.4969C13.7624 35.8965 12.144 35.0755 11.5531 34.5716C10.9818 34.1087 10.0462 32.7599 9.47924 31.5715C8.75586 30.0552 8.54009 28.6233 8.6386 26.5033C8.7885 24.6136 9.39461 22.5781 10.4352 20.7186C11.3223 19.1495 12.7329 16.1066 15.2638 10.0243L19.203 7.87363C22.2617 6.2037 23.4058 5.78568 24.4015 5.9136C25.0873 6.0041 26.5688 6.53826 27.6478 7.08563C28.7267 7.63298 30.1402 8.51423 30.6847 9.04342C31.2756 9.5473 32.4501 10.6623 33.2437 11.4688C34.1691 12.3065 35.1822 12.8382 35.8165 12.6985C36.6753 12.5396 37.1678 11.8575 38.1323 9.47132C38.7826 7.77329 39.7377 5.85715 40.296 5.19075C40.8739 4.56534 41.2345 3.8519 41.1172 3.60602C40.9999 3.36013 41.6118 2.56118 42.4678 1.7839C43.2774 1.03198 44.4896 0.266868 45.1507 0.0608908C45.7655 -0.119799 46.932 0.121447 47.7083 0.524127C48.4578 0.993088 49.1363 1.19086 49.2362 1.03299C49.3361 0.87512 49.7489 1.37293 50.1399 2.19256C50.5968 3.02785 51.3419 4.22236 51.7206 4.89373C52.1652 5.58079 52.4585 6.19549 52.3194 6.2714C52.1804 6.3473 52.6721 7.99012 53.4128 9.91015C54.1268 11.8965 54.8777 14.3275 55.0297 15.3809C55.1818 16.4343 55.6836 18.5881 56.063 20.2405C56.4888 21.8677 57.0876 23.2453 57.3512 23.3081C57.6343 23.4118 58.6148 22.7731 59.4975 21.9296C60.3802 21.0861 61.5041 19.6461 62.0769 18.7652C62.6301 17.8433 63.3224 16.8455 63.6345 16.5201C63.9466 16.1947 64.5578 14.4147 64.9785 12.4804C65.3724 10.6124 66.3319 7.97072 67.1777 6.68248C68.0308 5.28698 69.306 3.91928 70.3328 3.25537C71.2401 2.70835 72.5037 2.17345 73.1308 2.14101C73.7579 2.10858 74.91 2.56435 75.7181 3.15625C76.5457 3.78913 77.6326 5.21027 78.18 6.35773C78.6616 7.48951 79.3538 9.79763 79.6869 11.4754C80.02 13.1531 80.1829 15.6985 80.0815 17.2002C79.9605 18.6609 79.2161 21.7534 78.4637 23.9721C77.665 26.2161 76.1131 29.6977 74.9922 31.756C73.8712 33.8144 72.407 36.9899 71.6372 38.8048C70.9138 40.5944 70.4026 42.2166 70.593 42.3709C70.7176 42.5095 70.4641 42.9578 70.013 43.359C69.5619 43.7603 69.055 44.6569 68.9652 45.3258C68.8486 46.061 68.9202 47.3132 69.1136 48.0858C69.2801 48.9246 69.7566 49.8009 70.1643 50.0432C70.611 50.3675 71.6552 50.1074 73.6603 49.1676C75.9898 48.0508 76.7922 47.4061 78.1159 45.6503C79.0008 44.4441 80.2412 42.2688 80.9234 40.76C81.5592 39.2765 82.2268 37.9822 82.4585 37.8557C82.6244 37.7135 83.1088 36.1577 83.5419 34.3716C83.9749 32.5855 84.6513 29.8401 85.0235 28.2939C85.3957 26.7477 86.3429 23.9577 87.0663 22.1681C87.8165 20.3122 89.1837 17.9128 90.0613 16.8138C91.451 15.0737 92.0607 14.6375 93.7464 14.1304C94.8638 13.7787 96.3229 13.6536 96.9623 13.7694C97.6408 13.9672 98.7103 14.9846 99.6067 16.2514C100.418 17.4616 100.965 18.609 100.838 18.8332C100.646 19.0417 100.683 19.4864 100.839 19.8142C100.996 20.1421 101.053 21.6089 100.951 23.1105C100.83 24.5712 100.495 26.5622 100.14 27.5312C99.8036 28.5411 99.587 29.4341 99.6652 29.598C99.763 29.8029 99.1663 31.3684 98.4233 33.1171C97.6536 34.932 96.4428 37.6592 95.7802 39.209C95.0908 40.8251 94.35 42.211 94.072 42.3628C93.7939 42.5146 93.6867 42.7797 93.804 43.0256C93.9214 43.2715 93.8142 43.5366 93.5361 43.6884C93.258 43.8402 92.4463 44.9549 91.6736 46.1516C90.8742 47.4145 89.3289 49.8078 88.276 51.5191C87.2036 53.1893 86.336 54.7994 86.3607 55.0958C86.3853 55.3923 85.932 56.1564 85.3541 56.7818C84.7958 57.4482 84.1281 58.7425 83.8653 59.6608C83.6683 60.5948 83.4836 61.6771 83.501 62.0808C83.5184 62.4846 83.9434 63.1306 84.3634 63.5212C84.8493 63.9275 85.8841 64.1373 86.7429 63.9784C87.8725 63.7749 88.6676 63.2375 90.1745 61.7433C91.2962 60.666 92.3665 59.3585 92.5613 58.7873C92.7756 58.257 93.5628 56.8458 94.2891 55.6745C95.0154 54.5031 95.951 52.546 96.3406 51.4035C96.7569 50.1948 98.1176 45.5778 99.332 41.144C100.573 36.6439 101.388 32.8416 101.224 32.621C100.995 32.3847 101.048 32.2522 101.358 32.2896C101.622 32.3523 102.307 31.4617 102.828 30.3506C103.284 29.2238 104.222 27.885 104.905 27.3572C105.522 26.8137 106.773 26.1306 107.686 25.8391C108.532 25.5319 109.806 25.508 110.411 25.7974C111.036 26.1277 112.047 27.0222 112.616 27.8478C113.185 28.6735 114.109 30.8551 114.633 32.6871C115.11 34.5445 115.355 36.5283 115.187 37.0333C114.973 37.5635 114.91 38.1661 115.027 38.412C115.145 38.6579 114.887 39.8317 114.517 41.0152C114.1 42.224 113.882 43.4798 113.999 43.7256C114.136 44.0125 113.929 44.4355 113.558 44.6379C113.187 44.8403 112.707 45.6707 112.544 46.4311C112.355 47.2579 110.744 50.6165 108.955 53.9692C107.147 57.2808 104.593 61.7228 103.294 63.7751C101.895 65.9852 100.826 68.2738 100.741 69.1982C100.695 70.2045 100.857 70.7879 101.193 70.759C101.53 70.7301 102.067 70.3855 102.452 69.9686C102.81 69.6179 104.095 67.7802 105.314 65.9268C106.532 64.0733 107.858 61.9548 108.246 61.1751C108.653 60.4363 109.535 58.6118 110.236 57.1439C110.958 55.7171 111.354 54.4673 111.091 54.4046C110.801 54.4082 110.94 54.3323 111.323 54.2781C111.679 54.2902 112.806 53.4684 113.808 52.5081C114.81 51.5477 116.342 50.3499 117.222 49.8692C118.427 49.2114 119.371 49.1091 120.821 49.454C122.402 49.8303 122.974 50.2932 123.619 51.6456C124.088 52.6291 124.48 54.4298 124.459 55.7326C124.438 57.0355 124.137 58.8529 123.874 59.7712C123.545 60.6739 123.153 62.1791 122.956 63.1131C122.74 64.0062 122.195 65.8021 121.639 67.0867C121.13 68.3461 120.075 70.4201 119.341 71.6987C118.588 72.9364 117.129 75.3863 116.095 77.1386C115.042 78.8498 112.834 81.8118 111.146 83.6628C109.479 85.5547 107.897 87.5033 107.663 87.9926C107.429 88.4818 107.024 88.8578 106.76 88.7951C106.477 88.6914 106.099 89.0011 105.892 89.4241C105.685 89.8471 104.256 91.5052 102.769 93.0404C101.301 94.6166 99.7653 96.5398 99.4242 97.2943C99.0368 98.074 98.9252 99.0646 99.1403 99.5154C99.3554 99.9662 100.244 100.359 101.161 100.323C102.032 100.313 103.618 99.9633 104.677 99.4887C106.238 98.8429 107.214 97.9488 109.361 95.2266C110.87 93.3696 112.148 91.6391 112.228 91.4403C112.289 91.2004 113.11 89.6157 114.051 87.9141C114.992 86.2125 116.093 84.1132 116.534 83.2009C116.929 82.3139 118.03 80.2146 118.971 78.513C119.885 76.8777 121.349 74.6832 122.193 73.7577C123.037 72.8323 124.788 71.3598 126.092 70.5441C127.749 69.485 128.688 69.1272 129.413 69.2996C129.94 69.4251 130.694 70.1495 131.027 70.8462C131.379 71.5839 131.753 72.9808 131.846 73.9112C131.94 74.8417 132.004 76.2012 132 76.9267C131.949 77.6776 131.487 79.8927 130.974 81.8776C130.414 83.8878 128.785 88.1865 127.294 91.4283C125.868 94.6858 123.371 99.6135 121.843 102.411C120.295 105.167 117.951 108.823 116.615 110.43C115.298 112.079 112.789 114.534 111.045 115.899C109.321 117.305 107.704 118.446 107.46 118.424C107.189 118.469 107.09 118.627 107.207 118.873C107.324 119.119 107.178 119.302 106.841 119.331C106.504 119.359 105.109 119.863 103.753 120.448C102.35 121.059 100.835 121.68 100.445 121.841C100.055 122.003 98.7055 122.481 97.4687 122.95C95.7952 123.605 94.4751 123.654 92.2079 123.187C90.0066 122.736 88.4273 121.997 86.911 120.655C85.6438 119.591 84.3744 118.889 84.1159 119.082C83.7915 119.259 83.2875 120.774 82.9544 122.402C82.6871 124.046 82.1332 127.293 81.6907 129.549C81.3141 131.821 80.5646 134.658 80.0896 135.744C79.5878 136.896 78.5617 138.541 77.8571 139.39C77.1525 140.24 75.865 141.459 75.0627 142.104C74.2408 142.708 72.9286 143.631 72.2067 144.076ZM46.6746 28.7238C46.8687 27.1715 47.0671 24.8936 47.1344 23.5655C47.1555 22.2627 47.0642 20.9694 46.9469 20.7236C46.8101 20.4367 46.2293 20.4438 45.6732 20.7474C45.0244 21.1017 43.9983 22.7466 43.041 25.0255C42.1445 27.0646 41.458 29.299 41.4536 30.0245C41.4493 30.7501 41.5376 31.425 41.6354 31.6299C41.7136 31.7938 42.5166 32.1302 43.3928 32.375C44.4203 32.6922 45.206 32.6248 45.6376 32.1826C45.9765 31.7909 46.4146 30.2604 46.6746 28.7238Z" fill="#C7ACBE"/>
</svg>
