<svg width="313" height="280" viewBox="0 0 313 280" fill="none" xmlns="http://www.w3.org/2000/svg">
<path d="M81.247 0.860126C82.7773 0.651749 84.8569 0.339183 85.9555 0.200265C87.0149 0.0266169 90.3894 -0.0428421 93.4107 0.026617C98.08 0.130806 99.5318 0.304453 103.024 1.17269C105.3 1.72836 108.321 2.80498 109.773 3.5343C111.264 4.29835 114.05 5.89591 116.012 7.14617C118.013 8.39644 120.956 10.7233 122.604 12.3209C124.879 14.5088 126.174 15.4465 127.94 16.1759C129.235 16.7315 131.001 17.2872 131.864 17.3914C132.727 17.5303 133.59 17.7734 133.826 17.9123C134.061 18.0513 134.767 18.2944 135.395 18.4333C136.023 18.5722 137.279 19.0931 138.142 19.6141C139.005 20.135 140.339 21.2811 141.124 22.1146C141.909 22.9481 142.85 24.3373 143.164 25.2055C143.517 26.0738 144.106 28.4701 144.459 30.5886C144.812 32.7419 145.362 34.8604 145.793 35.4508C146.186 36.0064 147.088 36.7358 147.794 37.0483C148.54 37.3609 149.482 37.7429 149.913 37.8471C150.345 37.986 151.757 37.9166 153.052 37.7082C155.289 37.3609 155.524 37.222 158.349 34.5825C160.507 32.5682 161.567 31.8389 162.273 31.8389C162.823 31.8389 163.725 32.2556 164.314 32.7766C165.177 33.5406 165.451 34.131 165.648 35.9717C165.844 37.7429 165.726 38.7501 165.059 40.6602C164.627 42.0146 163.647 43.9248 162.862 44.9319C162.116 45.9044 160.9 47.1199 160.194 47.5714C159.527 48.0229 158.349 48.648 157.643 48.9605C156.976 49.2731 155.72 49.5162 154.896 49.5162C154.112 49.5162 152.268 49.2037 150.777 48.8216C148.697 48.266 147.677 47.745 145.95 46.3211C144.695 45.2792 143.282 43.6469 142.654 42.5703C142.066 41.5284 141.281 39.7919 140.889 38.7501C140.496 37.7082 139.79 36.1453 139.28 35.2771C138.77 34.4089 138.063 33.367 137.671 32.985C137.279 32.5682 136.376 31.9778 135.709 31.6652C135.003 31.3527 134.14 31.1096 133.826 31.1096C133.512 31.1096 133.237 31.179 133.237 31.2832C133.237 31.3874 134.061 32.1514 135.081 32.985C136.141 33.8185 137.239 35.1035 137.632 35.8328C137.985 36.5968 138.652 38.1249 139.123 39.271C139.594 40.4171 140.3 41.9799 140.692 42.744C141.085 43.508 142.301 45.0708 143.439 46.2169C144.577 47.363 146.146 48.648 146.931 49.0647C147.716 49.4815 149.129 50.0372 150.109 50.315C151.09 50.5581 153.209 50.8359 154.818 50.8707C156.427 50.9401 158.192 51.1832 158.742 51.4263C159.291 51.6695 160.115 52.2599 160.586 52.7113C161.018 53.1281 161.881 54.3784 162.43 55.4202C163.097 56.6358 163.45 57.886 163.45 58.8932C163.45 59.7614 163.215 61.3937 162.901 62.5398C162.626 63.6859 161.92 65.5613 161.371 66.7074C160.782 67.8534 160.272 69.1037 160.272 69.4857C160.272 69.8677 160.547 70.736 161.371 72.6114L162.509 71.2569C163.136 70.5276 164.471 69.0342 165.451 67.9576C166.432 66.881 168.551 64.9709 170.16 63.6859C171.769 62.4009 173.77 60.9075 174.633 60.3171C175.496 59.7267 177.733 58.3375 179.616 57.2609C181.5 56.1496 184.325 54.5867 185.894 53.788C187.464 52.9892 189.975 51.8084 191.505 51.1485C193.036 50.4887 195.311 49.5857 196.606 49.1689C197.901 48.7522 199.824 48.1965 200.922 47.9534C201.982 47.7103 204.846 47.2935 207.201 47.0852C210.693 46.7031 212.38 46.7031 216.029 47.0852C218.972 47.363 221.954 47.4325 224.661 47.2588C226.937 47.1199 229.331 46.981 229.959 46.981C230.586 46.9462 232.705 47.0504 234.667 47.1893C236.629 47.3283 239.258 47.6061 240.553 47.7797C241.848 47.9534 245.026 48.5785 247.616 49.1689C250.205 49.7593 253.737 50.697 255.463 51.2874C257.19 51.8431 258.955 52.4682 259.387 52.6072C259.819 52.7808 261.31 53.3712 262.722 53.9616C264.135 54.552 266.371 55.6981 267.705 56.5316C269 57.3651 271.041 58.7196 272.218 59.5531C273.356 60.3866 276.22 62.8871 278.535 65.1098C280.85 67.3325 283.165 69.6941 283.675 70.354C284.185 71.0138 285.559 72.8892 286.736 74.5215C287.952 76.1538 289.796 78.7932 290.895 80.4255C291.954 82.0578 293.288 84.2458 293.838 85.2877C294.348 86.3295 295.093 87.9966 295.486 88.9343C295.878 89.9067 296.938 92.2336 297.84 94.1437C298.743 96.0538 300.312 99.8046 301.293 102.479C302.274 105.153 303.49 108.973 303.961 110.988C304.432 113.002 304.864 114.947 304.903 115.329C304.942 115.711 305.021 116.023 305.099 116.023C305.138 116.023 305.217 116.405 305.295 116.892C305.334 117.378 305.648 118.697 305.923 119.844C306.315 121.337 306.472 124.74 306.472 131.825L306.472 131.856C306.433 141.515 306.432 141.796 305.374 145.196C304.785 147.106 304.314 149.19 304.314 149.815C304.314 150.406 304.118 150.996 303.922 151.1C303.726 151.204 303.412 152.177 303.294 153.288C303.137 154.365 302.902 155.441 302.706 155.615C302.549 155.789 302.274 156.969 302.156 158.22C301.96 159.921 302.117 161.033 302.666 162.735C303.098 163.985 303.686 165.548 303.961 166.207L303.998 166.295C304.273 166.957 304.679 167.933 304.942 168.465C305.178 169.021 305.923 170.514 306.59 171.764C307.257 173.014 308.12 174.959 308.591 176.105C309.023 177.252 309.572 178.814 309.768 179.578C310.004 180.342 310.435 181.836 310.789 182.878C311.142 183.92 311.77 186.663 312.201 188.955C312.633 191.248 312.986 194.616 312.986 196.422C313.025 198.228 312.907 200.52 312.75 201.458C312.594 202.43 312.397 203.438 312.319 203.715C312.28 203.993 311.966 205.313 311.613 206.667C311.299 208.022 310.867 209.585 310.632 210.14C310.435 210.696 309.925 211.912 309.454 212.849C308.984 213.752 308.434 214.551 308.238 214.655C308.042 214.759 307.846 215.141 307.846 215.523C307.846 215.905 306.551 217.468 304.903 218.996C303.294 220.525 301.764 221.775 301.568 221.775C301.371 221.775 300.704 222.053 300.077 222.4C299.488 222.747 297.879 223.303 296.467 223.615C295.054 223.963 293.014 224.241 291.954 224.275C290.856 224.31 289.286 224.206 288.423 224.067C287.56 223.928 286.736 223.754 286.54 223.65C286.383 223.581 285.716 223.685 285.088 223.859C284.46 224.032 283.911 224.31 283.911 224.484C283.911 224.623 283.518 224.796 283.047 224.9C282.537 224.97 280.654 225.039 278.81 225.039C275.985 225.005 275.121 224.866 273.316 224.102C272.139 223.581 270.609 222.851 269.981 222.504C269.353 222.157 268.608 221.914 268.412 221.983C268.215 222.018 266.254 222.4 264.095 222.817C261.937 223.233 259.74 223.511 258.21 223.233L258.524 228.825C258.72 232.819 258.955 234.59 259.348 234.972C259.662 235.25 260.643 235.806 261.584 236.153L261.85 236.261C263.03 236.739 265.935 237.916 268.608 239.035C271.511 240.251 274.533 241.397 275.278 241.571C276.024 241.744 278.77 242.613 281.36 243.481C283.95 244.384 286.618 245.252 287.246 245.46C287.874 245.669 288.776 246.051 289.208 246.259C289.639 246.502 291.052 246.988 292.347 247.336C293.642 247.683 298.036 249.454 309.611 254.594L309.925 256.331C310.122 257.303 309.808 265.919 309.925 279.36H306.944H301.929H296.412C294.406 279.36 290.148 279.255 286.381 279.36C282.614 279.464 278.718 279.394 277.855 279.36H273.341C271.359 279.36 263.438 279.221 255.787 279.36C248.136 279.464 236.613 279.325 229.707 279.36C222.801 279.429 210.056 279.394 201.62 279.36C193.184 279.36 179.916 279.394 172.029 279.36C164.142 279.325 153.933 279.36 149.46 279.36C142.005 279.325 143.441 279.36 140.432 279.36C140.393 279.012 141.516 276.404 141.83 275.432C142.144 274.494 142.85 273.001 143.439 272.133C143.988 271.264 145.126 269.702 145.95 268.66C146.735 267.618 148.579 265.673 150.031 264.319C151.483 262.964 153.916 261.054 155.407 260.047C156.937 259.04 160.194 257.303 162.666 256.192C165.138 255.08 168.944 253.657 171.102 253.031C173.26 252.406 175.81 251.538 176.791 251.121C177.772 250.704 178.989 250.253 179.538 250.149C180.401 249.94 180.637 250.149 181.5 251.538C182.049 252.406 183.187 253.83 184.05 254.698C184.913 255.567 186.718 256.921 188.092 257.755C189.426 258.588 190.603 259.283 190.721 259.283C190.838 259.283 191.741 259.734 192.8 260.325C193.82 260.88 195.782 261.748 197.195 262.269C198.607 262.79 200.373 263.346 201.119 263.52C201.864 263.693 203.63 264.041 205.042 264.284C207.122 264.701 207.75 264.701 208.378 264.353C208.809 264.11 209.005 263.798 208.77 263.693C208.574 263.589 207.318 263.311 206.023 263.103C204.729 262.895 202.335 262.304 200.726 261.818C199.118 261.297 197.43 260.741 196.999 260.533C196.528 260.325 194.252 259.144 191.898 257.893C189.465 256.609 186.679 254.803 185.424 253.726C184.246 252.649 182.873 251.191 181.5 249.211L183.265 248.343C184.246 247.857 185.031 247.232 185.031 246.954C185.031 246.676 184.835 246.433 184.639 246.433C184.443 246.433 182.795 247.093 181.029 247.857C179.224 248.655 177.419 249.454 176.987 249.663C176.556 249.836 174.515 250.531 172.475 251.156C170.435 251.781 167.884 252.615 166.786 253.031C165.726 253.448 163.058 254.525 160.9 255.462C158.742 256.365 155.917 257.859 154.622 258.796C153.327 259.699 151.483 261.089 150.502 261.853C149.521 262.617 147.284 264.909 145.479 266.923C143.714 268.938 142.517 270.66 142.438 270.833C142.399 271.042 140.934 273.341 140.432 274.846C140.115 275.797 140.781 279.896 126.89 279.861C117.905 279.826 105.358 279.965 103.318 279.861C101.277 279.757 89.4626 280 78.2406 279.861C67.0186 279.757 61.1645 280.035 55.6712 279.861C50.1779 279.687 40.6113 279.861 39.1202 279.861C37.6292 279.861 31.2817 280.035 27.0832 279.861C22.8848 279.653 16.2439 279.861 11.5354 279.861C5.1396 279.861 1.55486 280.174 1.35867 279.861C1.20172 279.618 1.24096 261.158 1.35867 240.702L3.0459 239.695C3.98761 239.14 6.22417 237.785 8.06835 236.709C9.91253 235.632 12.7377 234 14.3464 233.062C15.9552 232.124 17.9171 231.048 18.6626 230.631C19.4081 230.214 20.6637 229.554 21.4092 229.137L21.5507 229.065C22.3808 228.639 24.2098 227.702 25.7254 226.949C27.3341 226.151 29.1783 225.248 29.8454 224.935C30.5124 224.623 32.3566 223.615 33.9653 222.678C35.5741 221.74 38.3992 220.108 40.2434 219.066C42.0876 217.989 44.3634 216.565 45.3443 215.905C46.3253 215.246 47.1493 214.69 47.1885 214.655C47.267 214.655 47.11 213.474 46.8746 212.051C46.6784 210.627 46.2468 207.57 45.9329 205.278C45.619 202.986 44.9912 198.61 44.5988 195.554L44.5984 195.551C44.1668 192.495 43.5393 188.052 43.1862 185.656C42.8331 183.26 42.323 179.995 42.0091 178.363C41.6952 176.731 41.1459 174.161 40.7927 172.632C40.4396 171.104 39.9295 169.368 39.6548 168.812C39.3802 168.257 38.36 166.138 37.379 164.124C36.4373 162.109 35.5349 159.991 35.3779 159.435C35.221 158.88 34.7109 157.629 34.24 156.726C33.5337 155.407 33.1806 155.059 32.3958 155.059C31.8465 155.059 30.9833 154.99 30.4339 154.886C29.8846 154.816 28.7467 154.573 27.8835 154.33C27.0202 154.122 25.8823 153.67 25.333 153.392C24.7837 153.08 23.1357 152.003 21.6446 150.927C20.1536 149.885 17.9563 148.009 16.7792 146.759C15.602 145.509 13.9148 143.564 13.0516 142.418C12.1491 141.272 10.7758 139.084 9.991 137.556C9.20624 136.028 8.2253 133.978 7.87216 133.041C7.47978 132.068 7.0874 129.915 6.96968 128.179C6.85197 125.991 6.96969 124.289 8.06835 119.844L5.67484 117.586C4.34075 116.336 2.81047 114.53 2.30038 113.592C1.75105 112.62 1.084 110.988 0.770101 109.946C0.495436 108.904 0.260008 106.889 0.22077 105.5C0.22077 104.146 0.41696 102.166 0.652387 101.194C0.887814 100.187 1.35867 98.7975 1.67257 98.1376C2.02571 97.4777 2.73199 96.158 3.24209 95.1856C3.90913 93.9353 4.14456 92.8587 4.14456 91.2959C4.14456 89.733 3.63447 87.5104 2.37885 83.7248C1.39791 80.7728 0.456198 77.1262 0.260008 75.6676C0.063819 74.1742 -0.0538947 71.0833 0.024581 68.7911C0.142295 65.6307 0.41696 63.8248 1.20172 61.3243C1.75105 59.5183 3.24209 56.219 4.4977 54.0311C5.75331 51.8431 7.00892 49.0995 7.28359 47.9534C7.55825 46.8073 8.10758 44.8625 8.57844 43.6122C9.01005 42.3619 10.4619 39.8614 11.7959 38.0555C13.4439 35.798 15.1704 33.9921 17.25 32.3251C18.9372 30.9706 20.8599 29.5815 21.5662 29.1647C22.2332 28.7827 24.4698 27.6713 26.5101 26.6989C28.5505 25.7265 31.2972 24.6499 32.592 24.3373C34.2008 23.9205 36.3981 23.7469 39.4586 23.7469C41.9306 23.7122 44.4811 23.8164 45.1481 23.9553C46.286 24.1984 46.3645 24.1289 47.9733 21.3158C48.915 19.7183 50.563 17.183 51.7009 15.6549C52.8388 14.1268 54.6437 12.0778 55.7424 11.1401C56.8018 10.1676 59.313 8.4659 61.2357 7.35455C63.1583 6.20848 65.748 4.92348 66.9252 4.43727C68.1023 3.98579 71.2021 3.08282 73.7918 2.42296C76.3815 1.79782 79.7167 1.0685 81.247 0.860126Z" fill="#1E1E1E"/>
</svg>
