<svg width="292" height="248" viewBox="0 0 292 248" fill="none" xmlns="http://www.w3.org/2000/svg">
<path fill-rule="evenodd" clip-rule="evenodd" d="M55.245 0.0763941C55.5975 0.0763941 55.9109 0.215067 55.9109 0.423075C55.9109 0.631084 54.6183 1.60179 53.0516 2.64184C51.524 3.64721 49.8789 4.8606 49.4089 5.31128C48.9781 5.76197 48.0772 6.90601 47.4113 7.87672C46.7846 8.81276 45.8054 10.6155 45.2571 11.8636C44.7087 13.1116 44.0428 14.9837 43.8078 16.0237C43.5728 17.0638 43.3378 18.3118 43.2986 18.7972C43.2203 19.2825 42.9461 19.6639 42.5936 19.6639C42.1236 19.6639 42.0061 19.2132 42.0844 17.3065C42.1628 15.9544 42.6328 13.8743 43.2203 12.2796C43.7687 10.8235 44.8262 8.63942 45.5704 7.42604C46.3146 6.24732 47.8422 4.44458 48.9389 3.4392C50.0748 2.46849 51.7982 1.28978 52.7774 0.839093C53.7566 0.423075 54.8533 0.0763941 55.2058 0.0763941L55.245 0.0763941ZM67.8964 6.594C68.3273 6.66334 69.5415 7.04469 70.6382 7.39137C71.7741 7.73805 73.5759 8.77809 74.9076 9.85281C76.161 10.8582 77.8844 12.5569 78.6678 13.597C79.4903 14.637 80.7437 16.5784 81.5271 17.9305C82.2713 19.2825 83.368 21.6746 83.9163 23.304C84.5039 24.9334 84.9347 26.7362 84.9347 27.2909C84.8956 27.8456 85.0522 29.0936 85.2481 30.0643C85.4831 31.0004 85.8748 32.4218 86.1098 33.1845C86.384 33.9472 86.8932 36.4086 87.324 38.6273C87.7157 40.8808 88.4207 43.4116 88.8516 44.2783C89.2824 45.145 89.6349 45.9423 89.6349 46.081C89.5958 46.2543 90.3791 47.1904 91.28 48.1958C92.2201 49.2358 93.9435 50.6919 95.1185 51.4892C96.2936 52.2519 98.487 53.396 100.015 54.02C101.581 54.644 104.01 55.2681 105.694 55.4761C108.044 55.7881 109.258 55.7534 111.765 55.3374C113.489 55.0254 115.369 54.8867 115.956 54.9907C116.583 55.0947 117.64 55.6841 118.306 56.2734C119.011 56.8628 120.226 57.6255 120.97 57.9722C121.714 58.3188 123.398 58.8735 124.691 59.1855C125.983 59.5322 128.02 59.7749 129.195 59.7749C130.37 59.7402 132.133 59.4976 133.112 59.2549C134.326 58.9429 135.11 58.4229 135.658 57.6948C136.089 57.1055 136.833 56.4814 137.303 56.2734C137.812 56.0654 138.478 55.8921 138.791 55.8921C139.105 55.8921 139.614 56.4121 139.927 57.0015C140.241 57.6255 140.593 59.3242 140.75 60.7456C140.867 62.167 141.22 64.5938 141.533 66.1192C141.807 67.6446 142.199 69.378 142.317 69.9327C142.512 70.626 142.317 71.6314 141.807 72.8795C141.377 73.9195 140.867 75.3062 140.358 77.0396L137.812 75.2369C136.402 74.2315 133.934 72.7755 132.329 72.0128C129.548 70.73 129.195 70.6607 125.278 70.522C122.301 70.418 120.421 70.5567 118.424 70.9727C116.896 71.3194 113.919 72.2901 111.765 73.1915C109.611 74.0928 107.182 75.3409 106.36 75.9303C105.577 76.5543 104.911 77.3516 104.911 77.733C104.911 78.149 105.263 78.4957 105.772 78.6344C106.282 78.773 108.436 78.7037 110.59 78.565C112.744 78.3917 117.68 78.253 121.557 78.253C126.297 78.253 129.548 78.4264 131.506 78.773C133.073 79.0504 134.444 79.3971 134.522 79.5357C134.6 79.7091 135.266 79.8131 135.932 79.8131C136.637 79.8131 137.891 79.9864 140.162 80.5064V82.4825C140.162 83.5919 140.241 84.9786 140.358 85.5333C140.436 86.088 140.632 88.7575 140.828 91.4269C140.985 94.0964 141.141 102.139 141.141 109.281C141.141 116.423 141.024 123.668 140.828 125.402C140.671 127.135 140.358 129.701 140.123 131.122C139.927 132.543 139.575 134.589 139.379 135.629C139.183 136.669 138.909 138.16 138.791 138.922C138.674 139.685 138.204 142.042 137.773 144.122C137.342 146.203 136.794 148.595 136.52 149.392C136.128 150.675 135.971 150.813 135.462 150.397C135.149 150.12 133.66 149.323 132.133 148.629C130.605 147.936 128.177 146.549 126.649 145.509C125.122 144.504 122.693 143.221 121.166 142.666C118.776 141.8 117.915 141.696 114.311 141.696C110.512 141.696 109.963 141.8 107.065 142.874C105.342 143.533 103.383 144.573 101.385 146.376L97.7428 145.995C95.7452 145.752 93.0034 145.683 89.0474 146.064L88.9691 147.693C88.9299 148.803 88.4207 150.155 87.4415 151.923C86.4623 153.622 85.2089 155.147 83.7988 156.36C82.5846 157.4 80.3912 158.752 78.8636 159.411C77.336 160.07 75.8868 160.59 75.6126 160.59C75.3776 160.59 75.1426 160.416 75.1426 160.243C75.1426 160.07 76.2393 159.411 77.5711 158.822C78.9811 158.198 81.0962 156.811 82.4279 155.598C84.073 154.142 85.2872 152.651 86.2665 150.883C87.0498 149.461 87.6765 147.867 87.6765 147.312C87.6765 146.515 87.559 146.411 86.7756 146.584C86.3056 146.688 84.5039 147.416 82.7805 148.179C81.0571 148.976 78.1586 150.571 76.3177 151.784C74.4767 152.963 72.5575 154.384 72.0091 154.939C71.4608 155.459 70.7949 156.256 70.5207 156.672C70.2857 157.123 70.0507 157.747 70.0507 158.059C70.0115 158.406 70.5991 159.064 71.3041 159.55C72.0091 160.035 73.0667 160.624 73.6542 160.867C74.2809 161.11 75.4168 161.283 76.2002 161.283C77.0227 161.283 78.7461 160.971 80.0387 160.624C81.3312 160.278 82.7021 159.896 83.0546 159.758C83.6422 159.584 83.7597 159.723 83.6813 160.659C83.6422 161.283 83.838 162.15 84.073 162.566C84.3472 163.017 84.6997 163.363 84.9347 163.363C85.1697 163.363 85.3264 163.606 85.3264 163.883C85.3264 164.161 86.0706 164.681 86.9715 165.062C87.9115 165.409 90.0266 165.963 91.6717 166.275C93.5126 166.622 96.6461 166.83 99.5054 166.83C102.169 166.83 105.381 166.657 106.673 166.449C107.966 166.241 109.807 165.859 110.786 165.582C111.765 165.27 113.175 164.819 113.919 164.507C114.664 164.23 115.643 163.814 116.074 163.606C116.505 163.398 118.189 162.635 119.795 161.873C121.401 161.11 123.046 160.243 123.437 159.931C123.947 159.55 124.142 159.03 124.025 158.232C123.907 157.262 124.025 157.123 124.691 157.262C125.122 157.366 126.101 157.539 126.845 157.643C127.942 157.851 128.451 157.712 130.488 156.256L129.352 154.696C128.725 153.83 128.138 153.067 128.02 152.963C127.863 152.859 127.198 151.853 126.492 150.709C125.787 149.565 125.357 148.491 125.552 148.317C125.709 148.179 126.101 148.144 126.336 148.248C126.61 148.352 127.393 149.427 128.02 150.605C128.882 152.2 129.665 153.032 130.879 153.76C131.78 154.28 133.112 154.766 133.778 154.87C134.483 154.974 135.07 155.078 135.07 155.112C135.07 155.182 134.365 157.47 133.504 160.243C132.603 163.017 130.997 167.315 129.861 169.777C128.764 172.238 126.61 176.468 125.082 179.137C123.555 181.807 121.322 185.066 120.147 186.418C118.933 187.77 117.288 189.364 116.426 189.988C115.604 190.612 113.058 191.964 110.786 192.97C108.514 194.01 105.616 195.015 104.323 195.258C103.031 195.501 99.5837 195.709 96.6853 195.743C92.6509 195.778 90.7708 195.639 88.6557 195.119C87.1282 194.773 85.7181 194.357 85.5223 194.218C85.2872 194.079 84.5039 193.802 83.7597 193.559C83.0155 193.351 79.9995 192.068 77.101 190.682C74.2026 189.33 70.7557 187.596 69.4632 186.834C68.1706 186.106 66.5255 185.066 65.7813 184.58C65.0763 184.06 63.3921 182.881 62.0603 181.945C60.7678 181.009 58.5352 179.38 57.1251 178.305C55.715 177.265 52.3857 174.422 49.6831 172.03C46.9805 169.638 43.9645 166.622 42.9853 165.27C41.9669 163.918 40.0868 161.11 38.7551 159.03C37.4234 156.95 34.9166 152.72 33.2323 149.669C31.5481 146.619 29.433 142.493 28.5713 140.482C27.6704 138.472 26.9654 136.461 26.9654 135.975C26.9654 135.143 26.8479 135.109 24.2236 135.005C22.696 134.97 20.5809 134.623 19.4059 134.242C18.3091 133.895 16.6641 133.098 15.8024 132.509C14.9407 131.919 13.0997 130.463 11.7288 129.284C10.3579 128.106 8.24284 125.956 7.02862 124.535C5.85357 123.114 4.05182 120.444 3.03344 118.641C2.05422 116.839 0.957507 114.273 0.604991 112.921C0.174138 111.326 0.0174637 109.42 0.0958006 107.374C0.213306 104.705 0.409148 103.977 1.38836 102.347C2.01506 101.307 3.26845 99.9206 4.16932 99.2966C5.57939 98.3605 6.12775 98.1872 7.96867 98.1872C9.18289 98.1872 10.6713 98.4299 11.3763 98.7766C12.0814 99.0886 13.3739 99.8166 14.2356 100.406C15.0973 100.995 16.3899 102.035 17.1341 102.694C17.8783 103.353 19.5234 105.086 20.8551 106.542C22.1868 107.998 23.5577 109.697 23.9102 110.286C24.3019 110.876 24.9286 111.361 25.2811 111.361C25.9078 111.361 25.9862 110.841 25.9862 105.537C25.9862 102.347 26.2212 97.3205 26.4954 94.3737C26.7695 91.4269 27.2004 88.3068 27.4746 87.4747C27.7487 86.6427 28.1796 85.776 28.4538 85.568C28.728 85.36 28.963 84.9786 28.9238 84.7706C28.9238 84.528 29.3155 83.5919 29.7855 82.6905C30.2164 81.7545 30.6864 80.4024 30.7647 79.6397C30.8431 78.877 31.0781 77.6983 31.3522 77.0396C31.6264 76.2769 31.7831 73.4688 31.7439 69.586C31.7048 66.1538 31.5481 62.271 31.3522 60.919C31.1564 59.5669 31.0781 57.7988 31.1564 56.9321C31.1956 56.0654 31.3522 54.6787 31.4698 53.812C31.5481 52.9453 31.7439 51.3852 31.9006 50.3452C32.0181 49.3051 32.5273 47.4331 32.9973 46.185C33.4673 44.937 34.2507 43.2729 34.7207 42.4755C35.1908 41.6435 36.17 40.6381 36.8358 40.2221C37.5409 39.8061 39.1076 39.3554 40.2827 39.2167C41.4577 39.078 42.8678 39.0434 43.4161 39.078C43.9645 39.1474 45.4529 39.39 46.7455 39.6327C48.7822 39.9794 49.3698 39.9794 51.054 39.494C52.1115 39.182 54.1483 38.1767 55.5192 37.2753C56.8901 36.3739 58.3785 35.4032 58.8485 35.1259C59.5927 34.6752 59.8669 34.7792 61.982 35.9926C64.0579 37.206 64.5671 37.3446 66.6822 37.31C68.1706 37.31 69.5807 37.0673 70.4424 36.6513C71.1866 36.3046 72.0483 35.8192 72.2833 35.5419C72.5575 35.2992 74.0067 34.8485 75.5343 34.5712C77.0619 34.2938 78.7461 34.1552 79.3336 34.2592C79.9603 34.3978 80.8612 34.7098 81.4096 34.9872C82.2713 35.4725 82.5455 35.4379 83.6422 34.9525C84.6605 34.5018 84.8956 34.2245 84.7389 33.6351C84.6214 33.1845 84.073 30.9657 83.5247 28.6776C82.9763 26.3895 82.1146 23.3734 81.5662 21.9867C81.057 20.6346 79.5295 17.9305 78.1586 16.0237C76.8268 14.0823 75.0251 11.9329 74.1634 11.2049C73.3017 10.4768 71.4608 9.47146 70.0507 8.91677C68.0923 8.18874 67.1522 8.01539 65.938 8.15407C65.0763 8.25807 63.4704 8.77809 62.3737 9.33278C60.9244 10.0261 59.8669 10.8928 58.731 12.3836C57.5951 13.8396 56.6159 15.8851 55.4017 19.1439C54.4616 21.7093 53.5608 24.7601 53.4041 25.9041C53.2474 27.0482 53.0124 28.2269 52.8949 28.5043C52.7382 28.9203 52.6207 28.8856 52.3857 28.3309C52.229 27.9496 52.0724 26.9442 52.0724 26.0775C52.0724 25.2108 52.3074 23.5814 52.6599 22.4373C52.9733 21.2933 53.7175 19.1092 54.2658 17.5838C54.8142 16.0584 55.7542 13.9436 56.3417 12.9036C56.9293 11.8636 57.8693 10.5115 58.3785 9.95681C58.9269 9.40212 60.1802 8.50075 61.1595 7.98073C62.1778 7.42604 63.9404 6.87135 65.0371 6.69801C66.173 6.52467 67.4656 6.49 67.8964 6.594ZM121.166 27.1175C121.283 27.1175 121.675 27.2215 122.027 27.3255C122.458 27.4642 122.693 27.8456 122.615 28.2962C122.576 28.6776 122.967 30.0297 123.516 31.2777C124.103 32.5258 124.769 33.9125 125.004 34.3978C125.278 34.8832 125.983 36.0272 126.649 36.9979C127.276 37.934 128.686 39.5634 129.783 40.5688C130.84 41.6088 132.446 42.8222 133.308 43.2729C134.17 43.7236 135.932 44.3823 137.225 44.7983C138.517 45.1796 140.28 45.4916 142.708 45.457L141.925 46.2197C141.259 46.8437 140.867 46.913 138.987 46.705C137.812 46.601 135.501 45.9423 133.895 45.2836C131.702 44.3823 130.37 43.5156 128.686 41.9208C127.433 40.7421 126.022 39.078 125.552 38.246C125.082 37.414 124.573 36.6859 124.377 36.6166C124.221 36.5473 123.672 35.6459 123.163 34.6405C122.654 33.6698 121.831 31.7631 121.361 30.411C120.891 29.0589 120.617 27.7762 120.735 27.5335C120.852 27.3255 121.048 27.1175 121.166 27.1175ZM115.29 40.9848C115.604 40.9848 115.956 41.2275 116.074 41.5048C116.191 41.7822 116.387 42.3022 116.544 42.6142C116.661 42.9609 116.818 43.3769 116.896 43.5849C116.935 43.7929 117.327 44.6249 117.719 45.4916C118.15 46.3583 119.52 48.0571 120.813 49.2358C122.458 50.8305 123.947 51.8012 126.062 52.7373C128.098 53.6386 130.018 54.1933 132.329 54.5054C134.17 54.748 135.815 55.0254 136.05 55.1294C136.285 55.1987 136.167 55.4067 135.854 55.5801C135.54 55.7534 134.287 55.8921 133.112 55.8921C131.937 55.8921 129.822 55.6147 128.412 55.2681C126.963 54.9214 124.652 53.9507 123.006 53.0146C121.479 52.1132 119.403 50.5185 118.424 49.4785C117.445 48.4384 116.661 47.3637 116.661 47.121C116.661 46.913 116.23 45.7343 115.682 44.5209C115.134 43.3422 114.703 42.0595 114.703 41.6781C114.703 41.2968 114.977 40.9848 115.29 40.9848ZM195.429 50.3452C195.625 50.3452 195.507 51.3506 195.194 52.6679C194.802 54.1933 194.567 56.8281 194.567 60.2256C194.567 63.5537 194.802 66.5005 195.194 68.3726C195.547 70.002 196.095 72.3941 196.447 73.7462C196.8 75.0982 197.779 77.6637 198.641 79.4664C199.463 81.2691 201.343 84.8053 202.754 87.2667C204.203 89.7282 205.809 92.2589 206.396 92.8136C207.297 93.715 207.806 93.8883 210.313 94.131C211.919 94.3044 214.974 94.4777 217.128 94.5817C219.283 94.651 222.064 94.9284 223.317 95.1711C225.158 95.5177 226.059 95.9684 228.213 97.5978C229.662 98.7072 231.542 99.9206 232.404 100.302C233.266 100.683 234.832 101.446 235.929 102.001C236.987 102.555 239.102 103.457 240.629 103.977C242.157 104.462 243.645 105.086 243.959 105.329C244.272 105.572 245.525 106.161 246.701 106.612C247.876 107.097 250.069 107.79 251.597 108.172C254.064 108.83 254.495 109.073 255.905 110.737C256.767 111.708 258.529 113.476 259.822 114.655C261.115 115.799 262.72 117.047 263.347 117.428C263.974 117.809 264.875 118.295 265.306 118.537C265.736 118.78 266.716 119.231 267.46 119.543C268.204 119.855 269.81 120.201 270.985 120.305C272.356 120.409 273.648 120.305 274.51 120.028C275.254 119.751 276.86 118.953 278.035 118.225C279.485 117.359 280.816 116.839 282.148 116.7C283.793 116.492 284.459 116.596 286.339 117.359C288.337 118.191 288.768 118.537 289.786 120.271C290.452 121.38 291.118 122.802 291.274 123.46C291.431 124.084 291.627 124.674 291.744 124.708C291.862 124.778 291.901 125.956 291.823 127.378C291.783 128.764 291.353 130.983 290.883 132.335C290.413 133.687 289.708 135.317 289.277 135.975C288.846 136.634 287.867 138.056 287.083 139.096C286.3 140.101 284.106 142.389 282.148 144.122C279.485 146.549 277.957 147.589 275.881 148.491C273.492 149.531 272.669 149.669 269.418 149.808C266.206 149.912 265.462 149.843 264.013 149.184C263.112 148.803 262.29 148.248 262.211 148.005C262.094 147.693 261.898 147.693 261.35 147.971C260.801 148.248 260.645 148.664 260.723 149.531C260.801 150.397 260.214 151.853 258.294 155.216C256.924 157.678 254.573 161.457 253.163 163.537C251.714 165.617 249.442 168.633 248.111 170.228C246.818 171.822 244.664 174.249 243.41 175.601C242.118 176.988 240.512 178.479 239.885 178.964C239.219 179.449 238.475 180.004 238.279 180.212C238.083 180.455 236.125 181.945 233.971 183.505C231.817 185.1 229.349 186.834 228.487 187.354C227.625 187.839 225.236 189.087 223.199 190.092C221.163 191.098 218.499 192.38 217.324 192.866C216.149 193.386 213.603 194.391 211.645 195.085C209.686 195.778 206.788 196.749 205.182 197.234C203.576 197.685 200.56 198.378 198.523 198.759C196.487 199.141 193.431 199.418 191.747 199.418C190.102 199.418 186.929 199.106 184.697 198.725C182.503 198.343 179.722 197.719 178.547 197.303C177.372 196.922 175.766 196.263 175.022 195.847C174.278 195.466 172.359 194.218 170.792 193.109C169.264 191.999 167.972 190.994 167.972 190.82C167.972 190.682 167.659 190.266 167.267 189.884C166.875 189.503 165.504 187.804 164.173 186.071C162.88 184.337 161.431 182.396 161 181.737C160.53 181.079 159.394 179.137 158.415 177.404C157.475 175.67 156.026 172.793 155.242 170.99C154.459 169.188 153.519 167.003 153.245 166.137C152.931 165.27 152.305 163.19 151.874 161.457C151.443 159.723 150.738 156.464 150.307 154.176C149.876 151.888 149.445 149.149 149.328 148.109C149.21 147.069 149.093 141.522 149.093 135.802C149.093 130.082 149.21 123.772 149.328 121.762C149.484 119.751 149.68 117.497 149.759 116.735C149.837 115.972 150.229 111.43 150.581 106.681C151.09 99.3659 151.286 97.9445 151.834 97.6672C152.226 97.4938 153.558 96.9738 154.85 96.5578C156.143 96.1764 158.219 95.4831 159.433 95.1017C160.687 94.6857 163.233 94.131 165.113 93.8537C167.032 93.5763 169.499 93.3337 170.596 93.3337C171.732 93.3337 173.22 93.091 173.847 92.8136C174.474 92.5363 175.375 91.8776 175.766 91.3229C176.197 90.8029 177.02 89.2081 177.568 87.7867C178.156 86.3654 178.743 84.3893 178.939 83.4532C179.135 82.4825 179.448 81.1651 179.683 80.5064C179.918 79.8477 180.545 77.8717 181.093 76.1729C181.603 74.4742 182.699 70.938 183.443 68.3726C184.384 65.2525 185.415 62.7679 186.538 60.919C187.439 59.3936 188.653 57.5215 189.162 56.7588C189.671 55.9961 190.376 55.1294 190.69 54.8174C191.003 54.5053 192.139 53.396 193.157 52.3213C194.176 51.2119 195.194 50.3452 195.429 50.3452ZM148.779 55.8921C149.014 55.8921 149.289 56.2388 149.406 56.6548C149.563 57.2095 149.014 58.6309 147.643 61.1616C146.547 63.2417 145.646 65.0445 145.646 65.2525C145.646 65.4605 145.45 65.6685 145.254 65.7725C145.019 65.8765 144.706 65.5992 144.51 65.1485C144.275 64.5938 144.353 64.2471 144.823 63.8311C145.176 63.5537 145.881 62.5484 146.39 61.5776C146.938 60.6416 147.526 59.5669 147.722 59.1855C147.918 58.8042 147.996 58.1802 147.878 57.7988C147.8 57.4175 147.878 56.8281 148.074 56.4814C148.27 56.1694 148.584 55.8921 148.779 55.8921ZM218.343 66.9859C218.852 66.9859 219.439 68.3379 220.967 72.7755C222.064 75.9996 223.63 79.8477 224.492 81.3731C225.315 82.8985 226.96 85.3947 228.056 86.92C229.192 88.4454 230.759 90.7335 231.542 92.0163C232.326 93.3337 232.992 94.5817 232.992 94.7897C232.992 95.0324 232.208 94.443 231.268 93.507C230.289 92.5363 229.466 91.6002 229.466 91.4269C229.427 91.2536 228.801 90.3869 228.096 89.5202C227.351 88.6535 225.98 86.712 225.001 85.1866C224.061 83.6612 222.651 81.2345 221.907 79.8131C221.163 78.3917 220.066 75.9649 219.478 74.4395C218.93 72.9141 218.186 70.7994 217.873 69.7593C217.559 68.7193 217.363 67.6446 217.481 67.4019C217.598 67.1939 217.99 66.9859 218.343 66.9859ZM233.971 73.2261C234.088 73.2261 234.519 73.5728 234.95 73.9888C235.42 74.4395 236.634 76.4156 237.692 78.4264C238.789 80.4371 239.885 82.4479 240.159 82.9332C240.434 83.4186 241.334 84.8746 242.196 86.2267C243.019 87.5787 244.899 90.3175 246.348 92.3629C247.836 94.443 249.051 96.1764 249.051 96.2804C249.051 96.3845 249.717 97.4245 250.539 98.6032C251.362 99.8166 252.145 101.03 252.262 101.307C252.38 101.585 253.594 103.006 254.965 104.427C256.336 105.849 257.629 107.236 257.864 107.513C258.059 107.756 260.096 109.628 262.368 111.673C264.836 113.892 267.186 115.695 268.243 116.145C269.222 116.561 270.319 116.908 270.672 116.908C271.063 116.908 271.298 117.116 271.259 117.324C271.142 117.601 270.593 117.74 269.771 117.671C269.027 117.601 267.499 117.047 266.363 116.457C265.227 115.833 262.916 114.1 261.271 112.574C259.626 111.049 257.276 108.796 256.101 107.582C254.926 106.369 253.359 104.67 252.654 103.769C251.949 102.902 250.108 100.371 248.581 98.1872C247.053 96.0031 245.251 93.403 244.546 92.467C243.88 91.4962 242.04 88.6881 240.512 86.2267C239.024 83.7652 236.869 79.8478 235.773 77.5597C234.676 75.2716 233.775 73.3648 233.775 73.2955C233.775 73.2608 233.853 73.2261 233.971 73.2261ZM144.432 100.919C144.588 100.919 143.844 94.8937 144.432 95.9338C144.98 97.0085 145.528 97.8405 145.646 97.8405C145.763 97.8058 146.625 98.7072 149.289 101.827L148.975 106.508C148.819 109.073 148.623 111.673 148.584 112.228C148.505 112.782 148.348 114.585 148.231 116.215C148.074 117.844 147.878 120.236 147.8 121.588C147.683 122.94 147.487 126.962 147.173 137.189L145.489 139.962C144.588 141.488 143.452 143.81 142.982 145.162C142.552 146.515 141.925 148.456 141.572 149.496C141.259 150.536 140.867 152.027 140.711 152.789C140.593 153.552 140.162 155.355 139.771 156.776C139.34 158.198 138.948 160.139 138.791 161.11C138.674 162.046 138.4 164.473 138.204 166.483C138.008 168.494 137.891 170.436 138.008 170.817C138.086 171.198 138.282 172.828 138.4 174.457C138.517 176.086 138.791 178.028 139.026 178.791C139.261 179.553 139.536 180.732 139.614 181.391C139.731 182.049 139.927 182.777 140.084 182.951C140.201 183.124 140.358 183.609 140.397 183.991C140.436 184.372 141.337 186.314 142.434 188.324C143.531 190.335 145.215 192.831 146.194 193.871C147.213 194.911 147.878 195.813 147.722 195.882C147.526 195.951 145.568 195.327 143.296 194.53C141.024 193.767 136.794 192.103 133.895 190.82C130.997 189.572 128.216 188.394 127.746 188.186C126.884 187.804 126.845 187.631 126.923 183.471C126.963 179.172 126.963 179.103 128.529 176.364C129.352 174.838 130.919 171.649 131.976 169.257C133.034 166.865 134.365 163.433 134.914 161.63C135.462 159.827 136.285 157.158 136.715 155.736C137.146 154.315 137.891 151.403 138.4 149.323C138.909 147.243 139.849 142.77 140.515 139.442C141.141 136.114 141.847 131.815 142.082 129.909C142.317 128.002 142.708 124.084 142.904 121.241C143.139 118.329 143.217 111.222 143.061 105.017C142.943 98.9846 144.314 100.919 144.432 100.919ZM267.577 107.894C267.812 107.894 268.478 108.449 269.027 109.177C269.575 109.905 270.711 110.806 271.573 111.188C272.434 111.604 275.098 112.262 277.448 112.678C279.798 113.094 282.775 113.51 283.989 113.615C286.026 113.753 286.417 113.927 287.827 115.244C288.689 116.076 289.355 116.769 289.277 116.804C289.238 116.873 288.141 116.423 286.848 115.799C284.851 114.897 283.871 114.689 280.581 114.447C278.427 114.308 275.529 113.927 274.118 113.615C272.708 113.302 271.024 112.748 270.397 112.401C269.771 112.054 268.752 111.292 268.126 110.702C267.538 110.113 267.068 109.246 267.068 108.761C267.068 108.276 267.303 107.894 267.538 107.894H267.577ZM113.567 146.723C114.154 146.723 114.781 147.451 116.074 149.739C117.053 151.437 118.463 153.483 119.207 154.35C120.226 155.494 120.461 155.944 120.03 155.979C119.716 156.048 118.815 155.667 118.032 155.112C117.092 154.488 116.034 153.102 114.703 150.779C113.645 148.941 112.784 147.243 112.784 147.069C112.784 146.896 113.136 146.723 113.567 146.723ZM105.381 156.43C105.577 156.43 106.321 157.262 107.026 158.232C107.77 159.238 108.592 160.243 108.906 160.486C109.219 160.729 109.963 160.936 110.629 160.936C111.256 160.971 112.509 160.832 113.371 160.624C114.233 160.451 114.977 160.312 115.055 160.347C115.094 160.382 114.037 160.833 112.705 161.353C111.334 161.907 108.906 162.566 107.3 162.878C105.694 163.155 101.385 163.502 91.1625 163.814L92.7684 162.289C93.6693 161.457 94.8052 160.139 95.3144 159.376C96.1761 158.163 96.2936 158.059 96.5286 158.683C96.6853 159.064 96.9986 159.827 97.2336 160.382C97.5078 160.936 98.0562 161.595 98.487 161.838C99.0746 162.185 99.7012 162.185 100.837 161.977C101.699 161.803 102.521 161.526 102.678 161.387C102.796 161.214 103.266 160.555 103.696 159.896C104.088 159.238 104.558 158.163 104.715 157.539C104.871 156.95 105.185 156.43 105.381 156.43ZM35.8958 158.094C36.4442 158.787 37.5409 160.382 38.2851 161.63C39.0293 162.878 40.0477 164.403 40.5568 164.993C41.066 165.617 41.4969 166.31 41.4969 166.483C41.4969 166.657 44.4345 169.465 48.038 172.654C51.6807 175.844 55.5584 179.172 56.7334 180.004C57.8693 180.871 59.0835 181.772 59.3577 181.98C59.6711 182.223 60.0236 182.431 60.1802 182.431C60.3761 182.431 61.6687 183.367 63.1179 184.511C64.6063 185.655 65.8597 186.591 65.9772 186.591C66.0947 186.591 67.1131 187.25 68.249 188.047C69.424 188.879 71.6566 190.543 73.2625 191.756C74.8684 193.005 77.2969 194.669 78.7069 195.466C80.117 196.263 82.8196 197.615 84.7781 198.482C86.6973 199.349 88.9299 200.285 89.6741 200.562C90.4183 200.874 92.0242 201.36 93.1993 201.706C94.3743 202.053 95.7844 202.4 96.3328 202.434C96.8811 202.469 99.4271 202.538 102.012 202.538C105.146 202.515 106.895 202.365 107.261 202.088C107.574 201.845 107.848 201.741 107.848 201.81C107.887 201.88 108.318 201.845 108.867 201.672C109.415 201.533 110.825 201.013 112 200.528C113.175 200.042 114.507 199.349 114.938 199.002C115.721 198.378 115.839 198.413 121.479 200.874C124.652 202.261 127.354 203.301 127.55 203.162C127.707 203.024 127.746 202.018 127.589 200.909C127.433 199.799 127.158 196.714 127.002 194.079C126.767 190.439 126.806 189.295 127.158 189.399C127.393 189.468 129.548 190.404 136.245 193.351L136.285 194.981C136.285 196.298 135.854 197.407 134.17 200.354C132.994 202.434 131.036 205.277 129.783 206.733C128.49 208.189 126.257 210.616 124.808 212.107C123.359 213.632 121.479 215.296 120.696 215.816C119.912 216.371 118.032 217.446 116.505 218.243C114.977 219.006 112.078 220.288 110.042 221.086C108.005 221.883 105.342 222.75 104.166 223.062C102.991 223.374 100.524 224.032 98.6829 224.483C96.8419 224.969 94.2177 225.523 92.8076 225.731C91.3975 225.905 89.0474 226.182 87.5198 226.321C85.9923 226.425 83.0155 226.563 80.8612 226.633C78.7069 226.702 74.7509 226.529 72.0483 226.286C69.3457 226.043 66.0164 225.558 64.6063 225.246C63.1962 224.934 61.0028 224.345 59.7102 223.963C58.4177 223.582 56.6551 222.992 55.7934 222.646C54.9317 222.334 53.7958 221.918 53.2474 221.779C52.6991 221.64 50.4273 220.67 48.1555 219.595C45.8838 218.555 43.2595 217.238 42.2803 216.683C41.301 216.093 39.3818 214.464 38.0109 213.008C36.64 211.517 34.9166 209.264 34.2115 207.912C33.4673 206.56 32.684 204.757 31.9006 202.226L35.3083 200.146C37.2275 198.967 38.9118 198.031 39.1468 198.031C39.3426 198.031 39.5776 198.378 39.6168 198.794C39.6951 199.245 40.0085 199.591 40.3218 199.591C40.6352 199.591 40.9485 199.279 41.0269 198.898C41.1052 198.517 40.7919 196.333 40.361 194.045C39.9693 191.756 39.2251 187.076 38.7551 183.644C38.3242 180.212 37.6975 175.601 37.3842 173.417C37.0708 171.233 36.4442 167.489 36.0525 165.097C35.6216 162.705 35.0733 159.931 34.7991 158.96C34.5641 157.955 34.4857 157.054 34.6424 156.984C34.7599 156.88 35.3474 157.4 35.8958 158.094ZM246.387 176.017C246.583 176.086 246.818 182.604 246.936 190.474C247.053 198.343 247.249 205.346 247.327 206.005C247.406 206.664 247.562 209.368 247.915 216.752L246.035 218.07C245.016 218.798 243.489 219.768 242.627 220.184C241.765 220.635 239.924 221.363 238.514 221.848C237.104 222.334 235.185 222.958 234.206 223.235C233.227 223.478 230.602 224.032 228.331 224.414C226.059 224.83 222.651 225.246 220.693 225.385C218.734 225.489 214.778 225.489 211.88 225.315C208.394 225.142 205.73 224.795 204.046 224.345C202.636 223.963 200.168 223.062 198.562 222.368C196.565 221.502 194.802 220.392 190.455 216.579L190.18 212.072C190.024 209.611 189.789 206.664 189.632 205.554C189.475 204.445 189.436 203.474 189.554 203.37C189.671 203.301 189.945 203.37 190.141 203.544C190.337 203.717 191.512 204.098 192.687 204.41C194.176 204.826 195.86 204.93 198.171 204.861C200.012 204.757 202.636 204.445 204.046 204.098C205.456 203.752 206.749 203.336 206.984 203.197C207.18 203.024 207.571 202.885 207.845 202.885C208.12 202.885 209.373 202.469 210.587 201.949C211.841 201.429 214.622 200.111 216.776 198.967C218.93 197.858 220.889 196.749 221.084 196.506C221.28 196.263 222.69 195.362 224.218 194.495C225.824 193.594 228.252 191.652 230.093 189.884C231.817 188.186 234.284 185.932 235.538 184.892C236.83 183.817 239.729 181.356 241.961 179.415C244.233 177.473 246.231 175.948 246.387 176.017ZM264.522 181.113C264.757 181.217 264.992 181.807 265.071 182.465C265.149 183.124 264.718 185.274 264.17 187.284C263.621 189.295 262.72 191.93 262.133 193.178C261.545 194.426 260.018 196.818 258.725 198.517C257.394 200.215 256.062 201.706 255.748 201.88C255.435 202.018 254.887 202.018 254.573 201.81C254.26 201.637 254.182 201.498 254.378 201.498C254.573 201.498 255.827 200.215 257.08 198.655C258.373 197.061 259.94 194.703 260.527 193.351C261.154 191.999 262.094 189.364 262.603 187.458C263.112 185.551 263.621 183.367 263.739 182.604C263.817 181.841 263.935 181.183 263.974 181.113C264.013 181.044 264.248 181.044 264.522 181.113ZM181.524 199.557C181.72 199.626 183.052 199.903 184.423 200.146C185.794 200.423 187.047 200.874 187.204 201.152C187.36 201.429 187.595 203.232 187.752 205.138C187.909 207.045 188.144 209.16 188.261 209.819C188.457 210.789 188.418 210.997 187.948 210.789C187.634 210.651 184.384 209.541 180.741 208.258C177.059 207.01 171.066 204.965 167.424 203.682C163.742 202.4 160.412 201.152 159.982 200.909C159.355 200.562 159.316 200.458 159.786 200.285C160.099 200.181 161.509 200.25 162.919 200.389C164.329 200.562 166.17 200.666 167.032 200.597C167.894 200.528 171.223 200.424 174.474 200.285C177.686 200.181 180.506 199.938 180.741 199.765C180.937 199.557 181.289 199.453 181.524 199.557ZM249.325 217.792C249.403 217.792 250.657 218.312 252.106 218.971C253.594 219.595 257.041 221.051 264.836 224.206L261.741 226.806C260.057 228.227 257.629 230.099 256.336 230.966C255.043 231.833 252.772 233.185 251.244 233.982C249.717 234.745 247.445 235.854 246.152 236.444C244.86 237.033 242.235 237.934 240.277 238.42C238.319 238.905 235.068 239.598 233.031 239.945C230.994 240.327 227.626 240.777 225.589 240.985C223.552 241.193 221.084 241.471 220.105 241.54C219.126 241.644 216.541 241.713 214.308 241.713C212.115 241.713 210.196 241.644 210 241.575C209.843 241.505 208.394 241.332 206.788 241.228C205.182 241.089 202.048 240.604 199.816 240.153C197.622 239.668 194.881 238.974 193.745 238.593C192.648 238.177 190.925 237.553 189.945 237.172C188.966 236.756 186.969 235.785 185.441 234.953C183.913 234.121 181.798 232.63 180.702 231.59C179.644 230.585 178.508 229.267 178.234 228.713C177.96 228.158 177.842 227.395 177.96 227.049C178.077 226.737 179.292 225.801 180.623 225.003C181.994 224.206 184.579 222.368 189.632 218.312L191.63 220.08C192.766 221.051 194.881 222.507 196.408 223.304C197.936 224.102 199.855 224.899 200.717 225.107C201.578 225.281 202.989 225.697 203.85 225.974C204.712 226.286 207.61 226.702 210.313 226.875C213.016 227.083 216.071 227.222 217.168 227.222C218.225 227.187 220.889 227.014 223.043 226.806C225.197 226.633 228.096 226.251 229.506 225.939C230.916 225.627 233.266 225.073 234.793 224.691C236.321 224.31 239.102 223.374 241.06 222.611C243.175 221.779 245.486 220.531 246.857 219.526C248.111 218.555 249.247 217.792 249.325 217.792ZM270.672 226.459C270.867 226.459 271.103 226.633 271.22 226.806C271.338 226.979 270.789 227.881 270.006 228.782C269.222 229.718 267.812 231.07 266.872 231.833C265.932 232.596 264.64 233.601 263.935 234.086C263.269 234.572 262.525 235.126 262.25 235.3C262.015 235.508 261.036 236.097 260.057 236.686C259.078 237.241 257.746 237.969 257.119 238.281C256.493 238.593 255.318 239.182 254.573 239.564C253.829 239.98 251.871 240.847 250.265 241.575C248.659 242.268 245.212 243.412 242.627 244.14C240.042 244.868 236.243 245.804 234.206 246.185C232.169 246.601 229.271 247.087 227.743 247.26C226.215 247.433 222.455 247.711 219.322 247.815C216.188 247.953 213.172 247.954 212.546 247.85C211.958 247.711 211.488 247.364 211.488 247.087C211.488 246.671 212.232 246.567 215.679 246.567C218.029 246.567 222.22 246.324 225.001 246.047C227.782 245.769 231.268 245.388 232.717 245.18C234.206 245.007 236.125 244.695 237.026 244.521C237.966 244.313 240.277 243.689 242.235 243.1C244.194 242.476 248.228 240.847 251.244 239.494C254.26 238.108 257.942 236.201 259.469 235.265C260.997 234.329 264.052 231.971 266.246 230.03C268.478 228.054 270.476 226.459 270.672 226.459Z" fill="#C7ACBE" stroke="#1E1E1E" stroke-width="0.152597"/>
</svg>
