<svg width="281" height="100" viewBox="0 0 281 100" fill="none" xmlns="http://www.w3.org/2000/svg">
<path d="M50.3922 1.15099C51.8043 0.838543 54.0007 0.456665 55.2951 0.283085C56.5894 0.14422 58.0799 0.00535536 58.629 0.00535536C59.1781 -0.0293608 60.8255 0.109504 62.3552 0.283085C63.8849 0.421949 66.0813 0.942692 67.258 1.394C68.4347 1.84531 70.1605 2.85208 71.1019 3.61584C72.3962 4.6226 72.7884 5.17806 72.6708 5.83767C72.5923 6.49728 72.1216 6.80972 70.592 7.33046C68.8662 7.88592 68.3563 7.92064 66.4736 7.57348C65.2969 7.33046 63.1004 7.22632 61.5707 7.33046C60.041 7.43461 57.1386 7.67763 55.099 7.88592C53.0594 8.0595 49.6862 8.68439 47.6467 9.27457C45.6071 9.83003 42.5869 10.8021 40.9788 11.4617C39.3707 12.1213 36.782 13.4058 35.2915 14.3084C33.801 15.1763 32.3106 15.9401 32.0752 15.9054C31.8007 15.9054 31.4869 15.6623 31.3692 15.3846C31.2515 15.1069 31.7614 13.9612 32.5067 12.885C33.2519 11.7741 35.1346 9.72588 36.7427 8.33723C38.3116 6.91387 40.5866 5.21278 41.7632 4.51846C42.9399 3.82413 44.7834 2.92151 45.8816 2.50492C46.9406 2.08832 48.9802 1.49815 50.3922 1.15099Z" fill="#1E1E1E"/>
<path d="M107.461 14.6556C108.52 14.2043 110.56 13.7182 111.933 13.5794C113.306 13.4058 115.58 13.4058 117.032 13.5794C118.444 13.753 120.483 14.239 121.582 14.6903C122.641 15.1069 124.327 16.0789 125.308 16.8427C126.288 17.6064 127.543 18.9604 128.132 19.8283C128.759 20.7309 129.23 21.703 129.23 21.9807C129.23 22.2584 128.838 22.675 128.328 22.8833C127.583 23.2305 127.347 23.1263 126.288 21.9807C125.661 21.2864 124.209 19.9324 123.15 18.9951C121.229 17.3287 121.111 17.294 117.659 16.8427C115.737 16.5997 113.149 16.4955 111.972 16.5997C110.795 16.7385 108.677 17.294 107.265 17.8842C105.853 18.4744 104.206 19.4117 103.578 19.9671C102.99 20.4879 102.245 21.3211 101.97 21.8071C101.696 22.2931 101.186 22.7792 100.833 22.9527C100.401 23.1263 100.127 22.9874 99.9698 22.6056C99.8129 22.2584 100.048 21.3558 100.44 20.592C100.833 19.8283 102.166 18.3702 103.343 17.3287C104.52 16.2872 106.363 15.0722 107.461 14.6556Z" fill="#1E1E1E"/>
<path d="M88.5952 19.0298C88.3206 18.1619 88.203 17.3287 88.3206 17.1899C88.4383 17.051 88.7129 16.9468 88.909 17.0163C89.1443 17.0857 89.6542 17.6759 90.0857 18.3355C90.674 19.2728 90.7917 19.9671 90.6348 21.4599C90.5171 22.5014 90.321 24.6885 90.1641 26.3202C90.0464 27.9519 90.1249 30.139 90.3602 31.1805C90.5563 32.2219 90.9093 33.7842 91.1447 34.6521C91.3408 35.52 92.2429 38.089 93.145 40.3802C94.0079 42.6715 95.067 45.7265 95.4984 47.1499C95.9299 48.5733 96.7928 51.2464 97.4595 53.0516C98.0871 54.8569 98.6362 56.8704 98.6362 57.4953C98.6362 58.3632 98.5186 58.5368 98.0479 58.3632C97.6557 58.1896 96.6359 55.8289 95.4592 52.5309C94.4002 49.4759 92.4783 44.1643 91.1839 40.7274C89.9288 37.2905 88.6736 33.6453 88.4775 32.6733C88.2422 31.6665 88.0461 29.4794 88.0461 27.813C88.0461 26.1119 88.2814 23.8206 88.556 22.675C88.9874 20.9739 88.9874 20.2796 88.5952 19.0298Z" fill="#1E1E1E"/>
<path d="M49.6078 19.3075C50.5884 18.9257 52.1573 18.4049 53.1378 18.1272C54.2361 17.8495 56.3149 17.7106 58.629 17.78C61.1001 17.8495 62.9043 18.0925 63.9241 18.5091C64.787 18.8562 65.9245 19.3075 66.4344 19.5158C66.9442 19.7241 68.0817 20.4532 68.9446 21.1128C69.8075 21.7724 70.7488 22.7444 71.0234 23.2999C71.3372 23.8206 71.5725 24.4108 71.5725 24.5844C71.5725 24.758 71.1803 24.9316 70.7096 24.9316C70.1997 24.9316 69.2584 24.4455 68.6308 23.8554C68.0033 23.2652 66.7481 22.4667 65.8852 22.0501C64.5909 21.4599 63.5319 21.3211 59.6096 21.2516C55.5696 21.2169 54.5499 21.3211 52.5495 21.9807C51.2551 22.3973 49.0587 23.2652 47.6859 23.9248C46.2739 24.5844 44.7834 25.5912 44.2735 26.1466C43.8028 26.7021 43.0576 27.813 42.6654 28.5768C42.2339 29.3405 41.5671 30.0695 41.2141 30.2431C40.8219 30.382 40.4297 30.2778 40.1943 29.9654C39.959 29.6877 39.8806 29.0975 39.959 28.6809C40.0767 28.2296 40.9003 26.8757 41.8417 25.6606C42.783 24.4108 44.5088 22.6403 45.6855 21.703C46.8622 20.7656 48.6272 19.6894 49.6078 19.3075Z" fill="#1E1E1E"/>
<path d="M106.089 21.4252C106.638 20.8003 107.697 20.0713 108.442 19.8283C109.187 19.5853 110.521 19.4117 111.384 19.4811C112.364 19.5506 113.502 19.9671 114.482 20.592C115.345 21.1822 116.286 22.1543 116.561 22.7444C116.836 23.3693 117.071 24.4455 117.071 25.1051C117.071 25.7647 116.796 26.9104 116.483 27.6394C116.051 28.6115 115.541 29.0628 114.247 29.5835C113.306 29.9307 112.129 30.2084 111.58 30.2084C111.031 30.2431 109.736 29.8265 108.638 29.3058C107.54 28.785 106.324 27.9171 105.892 27.2575C105.422 26.5632 105.147 25.487 105.108 24.3414C105.108 22.9527 105.304 22.2931 106.089 21.4252Z" fill="#1E1E1E"/>
<path d="M49.5293 26.7368C50.1177 26.1119 51.2944 25.3829 52.1573 25.1051C53.0986 24.8274 54.4322 24.7233 55.4912 24.8274C56.4718 24.9316 57.7269 25.244 58.3545 25.487C58.9428 25.7647 59.7665 26.3896 60.1979 26.9104C60.7863 27.6047 61.0216 28.4032 60.9824 29.6877C60.9824 31.3193 60.8255 31.6665 59.5311 32.8816C58.5506 33.7495 57.4131 34.3743 56.2757 34.6521C55.2951 34.8604 54.0007 34.9645 53.3339 34.8604C52.6672 34.7562 51.5689 34.3396 50.9021 33.9578C50.1961 33.5759 49.3725 32.9163 49.0587 32.4997C48.7449 32.0484 48.4311 31.3193 48.3919 30.8333C48.3527 30.3473 48.3527 29.4794 48.3919 28.9239C48.4311 28.3685 48.941 27.3617 49.5293 26.7368Z" fill="#1E1E1E"/>
<path d="M152.371 31.5971C153.352 31.111 154.921 30.4861 155.901 30.2431C156.882 30.0001 158.725 29.8612 160.02 29.896C161.55 29.9654 163.04 30.2778 164.334 30.8333C165.433 31.2846 166.962 32.2219 167.825 32.9163C168.649 33.5759 169.708 34.6868 170.139 35.3464C170.61 36.006 171.159 37.3252 171.394 38.2973C171.747 39.5818 171.747 40.5538 171.434 41.9425C171.198 43.0187 170.688 44.3032 170.335 44.8239C169.943 45.3447 169.041 46.1431 168.374 46.6292C167.433 47.254 166.413 47.5665 164.727 47.7054C162.53 47.8789 162.256 47.8442 160.491 46.7333C159.196 45.9695 158.294 45.0669 157.745 44.0254C157.313 43.1575 156.882 41.9078 156.764 41.2481C156.686 40.5885 156.882 39.1999 157.235 38.1931C157.706 36.8045 158.294 36.0754 159.745 34.9992C160.765 34.2008 161.824 33.5759 162.099 33.6106C162.334 33.6106 162.569 33.2634 162.569 32.8121C162.569 32.0484 162.53 32.0484 158.569 32.2567C156.058 32.3955 154.489 32.6385 154.45 32.8816C154.372 33.0899 154.097 33.2634 153.823 33.2634C153.548 33.2634 152.528 33.8536 151.626 34.5479C150.724 35.277 149.665 36.3532 149.351 36.9086C148.998 37.4641 148.645 38.575 148.488 39.3388C148.331 40.2761 148.018 40.7621 147.547 40.7968C147.037 40.8663 146.802 40.5538 146.645 39.5818C146.488 38.7833 146.645 37.7765 147.037 36.9086C147.351 36.1449 148.292 34.8257 149.116 33.9925C149.94 33.1593 151.391 32.0831 152.371 31.5971Z" fill="#1E1E1E"/>
<path d="M204.773 33.8189C205.636 33.437 206.969 33.0204 207.715 32.8816C208.46 32.7427 210.264 32.6385 211.794 32.6038C213.402 32.5691 215.363 32.8121 216.501 33.1246C217.599 33.437 218.658 33.8536 218.854 33.9925C219.05 34.1661 219.521 34.3049 219.835 34.3049C220.148 34.3396 221.364 34.9992 222.541 35.7977C224.188 36.9086 224.973 37.8112 225.992 39.6859C226.855 41.2829 227.365 42.8798 227.522 44.3726C227.758 46.3167 227.64 46.8722 226.855 48.3302C226.345 49.2676 225.286 50.5174 224.541 51.0728C223.796 51.663 222.58 52.3226 221.913 52.6003C221.207 52.8433 219.678 53.0516 218.579 53.0516C217.194 53.0516 215.821 52.7623 214.461 52.1837C213.127 51.6283 212.029 50.8645 211.402 49.9966C210.892 49.3023 210.225 47.8442 209.99 46.8027C209.637 45.2405 209.637 44.5462 210.186 42.8798C210.617 41.5606 211.284 40.4497 212.304 39.5123C213.402 38.4709 214.069 38.1584 215.049 38.1237C216.304 38.1237 216.304 38.1237 216.148 36.6309C215.992 35.1815 215.952 35.1729 213.91 34.7295L213.873 34.7215C212.578 34.4438 210.97 34.3396 209.637 34.4785C208.46 34.6174 206.852 34.9645 206.107 35.277C205.361 35.5547 204.067 36.2837 203.204 36.8739C202.38 37.4641 201.478 38.2626 201.282 38.6444C201.047 39.0263 200.576 40.3455 200.223 41.5953C199.713 43.4005 199.439 43.8519 198.811 43.8519C198.144 43.8519 198.066 43.6436 198.144 42.1161C198.223 41.144 198.497 39.7554 198.811 38.9916C199.164 38.1931 200.223 36.9433 201.282 36.0754C202.302 35.2075 203.871 34.2008 204.773 33.8189Z" fill="#1E1E1E"/>
<path d="M0.304795 34.7909C-0.0874324 34.6868 -0.0874324 34.5132 0.22635 34.1313C0.500909 33.8189 1.28536 33.6106 2.10904 33.6106C2.8935 33.6106 4.30552 33.9578 5.28608 34.4091C6.22743 34.8257 7.99245 36.0407 9.20836 37.0822C10.385 38.1237 12.3462 40.3108 13.5621 41.9425C14.8957 43.713 16.1116 45.8654 16.6215 47.3235C17.0921 48.6774 17.4451 50.1008 17.4451 50.5174C17.4451 50.9687 17.2882 51.3853 17.0529 51.4894C16.8568 51.5936 15.837 51.3853 14.8172 51.0728C13.7582 50.7604 12.307 50.1702 11.5617 49.7883C10.8165 49.4064 9.67903 48.7121 9.01225 48.2608C8.38468 47.7748 7.63945 46.9763 7.40411 46.4903C7.16878 46.0043 6.85499 45.2405 6.6981 44.7892C6.50199 44.199 6.61966 44.0254 7.24722 44.0254C7.75712 44.0254 8.26701 44.442 8.73769 45.2405C9.12991 45.9695 10.2281 46.9763 11.3656 47.6359C12.4638 48.2608 13.7974 48.8857 15.484 49.2329L14.6995 47.3929C14.2681 46.4209 13.3267 44.7545 12.6207 43.7477C11.954 42.7062 10.385 40.8663 9.20836 39.6165C8.03168 38.4014 6.22743 36.9086 5.20764 36.3532C4.14862 35.7977 2.73661 35.2423 2.06982 35.1381C1.36381 35.034 0.540132 34.8604 0.304795 34.7909Z" fill="#1E1E1E"/>
<path d="M177.866 47.8442C178.062 47.3582 178.298 46.525 178.455 46.0043C178.651 45.3447 178.925 45.0669 179.357 45.1364C179.827 45.2058 180.023 45.5877 179.984 46.282C179.945 46.8722 179.71 48.3302 179.474 49.58C179.2 50.8298 178.455 53.3988 177.788 55.3082C177.121 57.2176 176.101 59.7171 175.474 60.8628C174.885 62.0084 174.14 63.5012 173.787 64.1608C173.473 64.8204 172.65 66.2438 171.983 67.2853C171.316 68.3267 170.532 69.4377 170.218 69.7154C169.943 69.9931 169.041 71.3123 168.296 72.6663C167.511 74.0202 166.884 75.4088 166.884 75.7907C166.884 76.2767 167.707 76.9711 169.826 78.1167C172.179 79.4706 172.689 79.8872 172.375 80.3038C172.061 80.7204 171.747 80.7551 170.924 80.4427C170.296 80.2344 169.198 79.7484 168.453 79.3318C167.707 78.9152 166.766 78.3944 166.335 78.2209C165.942 78.0473 165.433 77.6307 165.197 77.3529C164.962 77.0058 165.04 76.2073 165.472 74.9228C165.786 73.8813 166.884 71.7636 167.864 70.2361C168.884 68.7086 170.296 66.4521 171.002 65.2023C171.747 63.9525 172.885 61.6265 173.591 59.9949C174.258 58.3632 175.317 55.7248 175.905 54.0931C176.493 52.4615 177.121 50.5868 177.278 49.9272C177.396 49.2676 177.67 48.3302 177.866 47.8442Z" fill="#1E1E1E"/>
<path d="M272.393 55.3082C273.805 54.5444 275.923 53.5724 277.1 53.1558C278.276 52.7392 279.453 52.3573 279.649 52.3573C279.845 52.3573 280.316 52.5309 280.63 52.7045C281.061 52.9475 281.1 53.1905 280.826 53.6071C280.63 53.9195 279.649 54.3709 278.669 54.5791C277.688 54.8222 275.374 55.8636 273.53 56.9051C271.609 57.9813 269.334 59.6477 268.314 60.7239C267.294 61.7654 266.157 63.1193 265.804 63.7442C265.359 64.508 265.268 65.0056 265.529 65.237C265.725 65.4453 266.47 65.5147 267.098 65.4106C267.765 65.3064 268.706 64.8899 269.255 64.508C269.804 64.1261 270.432 63.7095 270.628 63.5359C270.824 63.3971 271.373 62.8069 271.805 62.2861C272.354 61.5571 272.785 61.3488 273.295 61.5224C273.648 61.6265 273.962 62.0431 273.962 62.425C273.962 62.8069 273.021 63.9178 271.922 64.8898C270.785 65.8619 269.569 66.7992 269.255 66.9381C268.941 67.077 268 67.2853 267.216 67.4241C266.235 67.563 265.215 67.4588 264.352 67.1117C263.254 66.6951 262.98 66.3826 262.98 65.6189C262.98 65.0981 263.45 63.8137 264.039 62.7722C264.627 61.7307 266.196 59.9254 267.49 58.7798C268.785 57.6342 270.981 56.0719 272.393 55.3082Z" fill="#1E1E1E"/>
<path d="M96.9889 66.3826C97.7733 66.0702 99.5776 64.9246 100.95 63.7789C102.323 62.668 103.696 61.7307 104.01 61.7307C104.284 61.7307 104.52 61.9737 104.52 62.2514C104.52 62.5292 103.421 63.6401 102.088 64.7163C100.715 65.7925 99.1853 66.8687 98.6362 67.1117C98.0871 67.3547 97.2242 67.6324 96.7143 67.6671C96.2044 67.7366 95.6945 67.5977 95.6161 67.3547C95.5769 67.1464 96.1652 66.6951 96.9889 66.3826Z" fill="#1E1E1E"/>
<path d="M164.648 96.2733C163.942 95.7872 163.707 95.3706 163.864 94.954C164.021 94.6416 164.217 94.3639 164.334 94.3639C164.452 94.3639 164.923 94.6069 165.433 94.8846C165.903 95.1623 167.904 95.7178 169.826 96.0997C171.787 96.4816 175.474 96.8981 178.062 97.0023C181.082 97.1759 184.181 97.0717 186.691 96.794C188.849 96.551 191.555 96.1344 192.692 95.8567C193.869 95.5789 195.046 95.4401 195.36 95.5442C195.673 95.6484 195.909 95.9261 195.909 96.0997C195.909 96.2733 195.438 96.8287 194.85 97.3147C194.065 97.9396 192.653 98.4256 190.025 98.9464C187.162 99.5018 185.201 99.6754 181.592 99.606C179.004 99.5713 175.474 99.3283 173.748 99.0505C172.022 98.7728 169.512 98.1826 168.139 97.7313C166.766 97.3147 165.197 96.6551 164.648 96.2733Z" fill="#1E1E1E"/>
</svg>
