<svg width="1251" height="629" viewBox="0 0 1251 629" fill="none" xmlns="http://www.w3.org/2000/svg">
<g filter="url(#filter0_d_84_105)">
<path d="M619.498 16.0058C659.067 16.0058 693.123 70.8187 730.421 78.2784C769.017 86.0623 821.235 48.44 856.912 63.0346C893.237 77.954 903.292 141.524 935.401 163.255C967.835 184.985 1030.43 170.39 1058 197.634C1085.57 225.203 1070.65 287.799 1092.38 320.232C1113.79 352.342 1177.35 362.721 1192.6 398.722C1207.19 434.399 1169.9 486.293 1177.36 525.213C1184.34 560.457 1232.89 592.287 1239 628.699H0C6.10699 592.25 54.653 560.155 61.6415 525.213C69.4256 486.617 31.8026 434.399 46.3977 398.722C61.3173 362.397 124.887 352.342 146.618 320.232C168.348 287.799 153.753 225.203 180.996 197.634C208.565 170.066 271.162 184.985 303.596 163.255C335.705 141.848 346.084 78.2784 382.085 63.0346C417.762 48.4399 469.655 85.7378 508.575 78.2784C546.198 70.8187 579.929 16.0059 619.498 16.0058Z" fill="#8C3112"/>
<path d="M619.498 16.0058C659.067 16.0058 693.123 70.8187 730.421 78.2784C769.017 86.0623 821.235 48.44 856.912 63.0346C893.237 77.954 903.292 141.524 935.401 163.255C967.835 184.985 1030.43 170.39 1058 197.634C1085.57 225.203 1070.65 287.799 1092.38 320.232C1113.79 352.342 1177.35 362.721 1192.6 398.722C1207.19 434.399 1169.9 486.293 1177.36 525.213C1184.34 560.457 1232.89 592.287 1239 628.699H0C6.10699 592.25 54.653 560.155 61.6415 525.213C69.4256 486.617 31.8026 434.399 46.3977 398.722C61.3173 362.397 124.887 352.342 146.618 320.232C168.348 287.799 153.753 225.203 180.996 197.634C208.565 170.066 271.162 184.985 303.596 163.255C335.705 141.848 346.084 78.2784 382.085 63.0346C417.762 48.4399 469.655 85.7378 508.575 78.2784C546.198 70.8187 579.929 16.0059 619.498 16.0058Z" fill="black" fill-opacity="0.2"/>
</g>
<defs>
<filter id="filter0_d_84_105" x="0" y="0" width="1251" height="628.699" filterUnits="userSpaceOnUse" color-interpolation-filters="sRGB">
<feFlood flood-opacity="0" result="BackgroundImageFix"/>
<feColorMatrix in="SourceAlpha" type="matrix" values="0 0 0 0 0 0 0 0 0 0 0 0 0 0 0 0 0 0 127 0" result="hardAlpha"/>
<feOffset dx="8" dy="-12"/>
<feGaussianBlur stdDeviation="2"/>
<feComposite in2="hardAlpha" operator="out"/>
<feColorMatrix type="matrix" values="0 0 0 0 0 0 0 0 0 0 0 0 0 0 0 0 0 0 0.25 0"/>
<feBlend mode="normal" in2="BackgroundImageFix" result="effect1_dropShadow_84_105"/>
<feBlend mode="normal" in="SourceGraphic" in2="effect1_dropShadow_84_105" result="shape"/>
</filter>
</defs>
</svg>
